<svg xmlns="http://www.w3.org/2000/svg" viewBox="0 0 333 106.49"><defs><style>.cls-1{fill:#fff;}</style></defs><g id="Layer_2" data-name="Layer 2"><g id="Layer_1-2" data-name="Layer 1"><path class="cls-1" d="M333,106.49H0V91.64L34.1,14.85H2.65V0H52.82V14.85L18.9,91.64H333Z"/><path class="cls-1" d="M70.3,25.89H59.05V16.47H70.3Zm0,60.38H59.05v-52H70.3Z"/><path class="cls-1" d="M91.17,86.27H79.92V16.47H91.17Z"/><path class="cls-1" d="M112,86.27H100.79V16.47H112Z"/><path class="cls-1" d="M132.41,62V71.2c0,4.92,1.75,7.22,5.62,7.22A5,5,0,0,0,142.66,76c.5-1.05.62-1.57.62-5.86a13.65,13.65,0,0,1,.13-1.88h11.37v2.4c0,5.76-.63,8.06-2.87,10.68-3,3.56-8.13,5.65-13.63,5.65s-10.62-2.09-13.5-5.34c-2.62-2.93-3.62-6.38-3.62-12.35V51.21c0-6.07,1-9.42,3.5-12.35,2.87-3.24,8.12-5.34,13.37-5.34s10.25,2,13.25,5.34c2.5,2.93,3.5,6.28,3.5,12.35V62Zm11.12-12.66c0-5-1.75-7.23-5.5-7.23s-5.62,2.31-5.62,7.23v4.81h11.12Z"/><path class="cls-1" d="M175.4,39.91c5.25-4.82,8.37-6.39,12.87-6.39a8,8,0,0,1,6.25,2.41c1.63,2,2,3.66,2,9.84v40.5H185.28V48c0-3,0-3.56-.38-4.3a2.36,2.36,0,0,0-2.37-1.57c-2.38,0-4.5,1.37-7.13,4.4V86.27H164.15v-52H175.4Z"/><path class="cls-1" d="M217.52,25.89H206.27V16.47h11.25Zm0,60.38H206.27v-52h11.25Z"/><path class="cls-1" d="M259.51,86.27H248.26V80.61C243,85.43,239.89,87,235.39,87a8,8,0,0,1-6.25-2.41c-1.63-2-2-3.66-2-9.83V34.26h11.25v38.3c0,3,0,3.56.37,4.29a2.37,2.37,0,0,0,2.38,1.57c2.37,0,4.5-1.36,7.12-4.4V34.26h11.25Z"/><path class="cls-1" d="M280.5,39.91c5.25-4.82,8.38-6.39,12.88-6.39s7.25,2.2,8,6.39c5.37-4.82,8.62-6.39,13.25-6.39a8,8,0,0,1,6.25,2.41c1.62,2,2,3.66,2,9.84v40.5H311.63V48c0-3,0-3.56-.38-4.3a2.42,2.42,0,0,0-2.5-1.57c-2.25,0-4.5,1.37-7.12,4.4V86.27H290.38V48c0-3,0-3.56-.38-4.3a2.36,2.36,0,0,0-2.37-1.57c-2.38,0-4.5,1.37-7.13,4.4V86.27H269.25v-52H280.5Z"/></g></g></svg>