<svg xmlns="http://www.w3.org/2000/svg" viewBox="0 0 346.73 47.61"><defs><style>.cls-1{fill:#fff;}</style></defs><g id="Layer_2" data-name="Layer 2"><g id="Layer_1-2" data-name="Layer 1"><path class="cls-1" d="M47,3.81,5.23,44.42h341.5v3.19H0V45L41.74,4.34H1.19V1.22H47Z"/><path class="cls-1" d="M53.33,3.72a2.17,2.17,0,0,1,2.33-2.11,2.12,2.12,0,0,1,2.28,2.11,2.17,2.17,0,0,1-2.28,2.17A2.21,2.21,0,0,1,53.33,3.72ZM57.1,41.1H54.27V10.94H57.1Z"/><path class="cls-1" d="M69.32,41.1V0h2.84V41.1Z"/><path class="cls-1" d="M84.49,41.1V0h2.83V41.1Z"/><path class="cls-1" d="M132.31,25.55a1.59,1.59,0,0,1-.05.56H100c0,8.94,5.94,13.66,15.16,13.66,6.44,0,10.61-1.56,14.27-5.06l1.89,2c-4.11,3.84-9,5.56-16.27,5.56-11.39,0-17.94-6.39-17.94-16.22s6.55-16.22,17.83-16.22C125.7,9.83,132.15,15.72,132.31,25.55ZM100.1,23.72h29.32c-1-7.67-6.55-11.44-14.49-11.44C106.71,12.28,101,16.27,100.1,23.72Z"/><path class="cls-1" d="M141.54,41.1V10.94h2.83v6.94c2.78-5,8.17-8,14.94-8,9.67,0,14.11,6.06,14.11,14.44V41.1h-2.83V24.44c0-7.61-3.73-12-11.72-12-6.33,0-11.61,2.83-14.5,8.94V41.1Z"/><path class="cls-1" d="M185.09,41.1V10.94h2.83v6.94c2.78-5,8.16-8,14.94-8,9.67,0,14.11,6.06,14.11,14.44V41.1h-2.83V24.44c0-7.61-3.73-12-11.72-12-6.34,0-11.61,2.83-14.5,8.94V41.1Z"/><path class="cls-1" d="M227.86,3.72a2.17,2.17,0,0,1,2.33-2.11,2.12,2.12,0,0,1,2.28,2.11,2.16,2.16,0,0,1-2.28,2.17A2.21,2.21,0,0,1,227.86,3.72Zm3.78,37.38H228.8V10.94h2.84Z"/><path class="cls-1" d="M275.29,10.94V41.05h-2.83V34.1c-2.77,5.06-8.16,8.11-15,8.11-9.67,0-14.11-6.11-14.11-14.44V10.94h2.83V27.6c0,7.56,3.78,12,11.72,12,6.33,0,11.61-2.77,14.55-8.89V10.94Z"/><path class="cls-1" d="M344.06,24.11v17h-2.78V24.27c0-7-3.22-11.88-10.88-11.88-6.17,0-10.89,3.33-13.5,9.22a19,19,0,0,1,.17,2.5v17h-2.83V24.27c0-7-3.23-11.88-10.89-11.88-6.17,0-10.72,3.16-13.28,8.83V41.1h-2.83V10.94h2.83v6.89c2.39-4.83,7.61-8,13.89-8,7.22,0,11.11,3.83,12.5,9.22,2.33-5.83,8.11-9.22,14.49-9.22C340.4,9.83,344.06,16.22,344.06,24.11Z"/></g></g></svg>